<svg width="24" height="24" viewBox="0 0 24 24" fill="none" xmlns="http://www.w3.org/2000/svg">
<path d="M19.7143 3C20.3973 3 21 3.60268 21 4.32589V19.7143C21 20.4375 20.3973 21 19.7143 21H4.24554C3.5625 21 3 20.4375 3 19.7143V4.32589C3 3.60268 3.5625 3 4.24554 3H19.7143ZM8.42411 18.4286V9.87054H5.77232V18.4286H8.42411ZM7.09821 8.66518C7.94196 8.66518 8.625 7.98214 8.625 7.13839C8.625 6.29464 7.94196 5.57143 7.09821 5.57143C6.21429 5.57143 5.53125 6.29464 5.53125 7.13839C5.53125 7.98214 6.21429 8.66518 7.09821 8.66518ZM18.4286 18.4286V13.7277C18.4286 11.4375 17.9063 9.62946 15.2143 9.62946C13.9286 9.62946 13.0446 10.3527 12.683 11.0357H12.6429V9.87054H10.1116V18.4286H12.7634V14.2098C12.7634 13.0848 12.9643 12 14.3705 12C15.7366 12 15.7366 13.2857 15.7366 14.25V18.4286H18.4286Z" fill="#545454"/>
</svg>
