<svg width="24" height="24" viewBox="0 0 24 24" fill="none" xmlns="http://www.w3.org/2000/svg">
<path d="M19.75 10.3828H19.7148C18.0977 10.3828 16.6211 9.89062 15.4258 9.01172V15.3047C15.4258 18.4688 12.8594 21 9.69531 21C6.53125 21 4 18.4688 4 15.3047C4 12.1406 6.53125 9.57422 9.69531 9.57422C9.97656 9.57422 10.2227 9.60938 10.5039 9.64453V12.8086C10.2227 12.7031 9.97656 12.668 9.69531 12.668C8.25391 12.668 7.05859 13.8633 7.05859 15.3047C7.05859 16.7461 8.25391 17.9414 9.69531 17.9414C11.1367 17.9414 12.332 16.7461 12.332 15.3047V3H15.4258C15.4258 3.03516 15.4258 3.03516 15.4258 3.07031C15.4258 3.31641 15.4258 3.5625 15.4961 3.80859C15.707 4.96875 16.4102 5.98828 17.3945 6.62109C18.0625 7.07812 18.8711 7.32422 19.7148 7.32422C19.7148 7.32422 19.7148 7.32422 19.75 7.32422V10.3828Z" fill="#545454"/>
</svg>
