<svg width="24" height="24" viewBox="0 0 24 24" fill="none" xmlns="http://www.w3.org/2000/svg">
<path d="M12.0201 7.35938C14.5513 7.35938 16.6406 9.44866 16.6406 11.9799C16.6406 14.5513 14.5513 16.6004 12.0201 16.6004C9.44866 16.6004 7.39955 14.5513 7.39955 11.9799C7.39955 9.44866 9.44866 7.35938 12.0201 7.35938ZM12.0201 14.9933C13.6674 14.9933 14.9933 13.6674 14.9933 11.9799C14.9933 10.3326 13.6674 9.0067 12.0201 9.0067C10.3326 9.0067 9.0067 10.3326 9.0067 11.9799C9.0067 13.6674 10.3728 14.9933 12.0201 14.9933ZM17.8862 7.19866C17.8862 7.80134 17.404 8.28348 16.8013 8.28348C16.1987 8.28348 15.7165 7.80134 15.7165 7.19866C15.7165 6.59598 16.1987 6.11384 16.8013 6.11384C17.404 6.11384 17.8862 6.59598 17.8862 7.19866ZM20.9397 8.28348C21.0201 9.77009 21.0201 14.2299 20.9397 15.7165C20.8594 17.1629 20.5379 18.4085 19.4933 19.4933C18.4487 20.5379 17.1629 20.8594 15.7165 20.9397C14.2299 21.0201 9.77009 21.0201 8.28348 20.9397C6.83705 20.8594 5.59152 20.5379 4.5067 19.4933C3.46205 18.4085 3.14063 17.1629 3.06027 15.7165C2.97991 14.2299 2.97991 9.77009 3.06027 8.28348C3.14063 6.83705 3.46205 5.55134 4.5067 4.5067C5.59152 3.46205 6.83705 3.14063 8.28348 3.06027C9.77009 2.97991 14.2299 2.97991 15.7165 3.06027C17.1629 3.14063 18.4487 3.46205 19.4933 4.5067C20.5379 5.55134 20.8594 6.83705 20.9397 8.28348ZM19.0112 17.2835C19.4933 16.1183 19.3728 13.3058 19.3728 11.9799C19.3728 10.6942 19.4933 7.8817 19.0112 6.67634C18.6897 5.91295 18.0871 5.27009 17.3237 4.98884C16.1183 4.5067 13.3058 4.62723 12.0201 4.62723C10.6942 4.62723 7.8817 4.5067 6.71652 4.98884C5.91295 5.31027 5.31027 5.91295 4.98884 6.67634C4.5067 7.8817 4.62723 10.6942 4.62723 11.9799C4.62723 13.3058 4.5067 16.1183 4.98884 17.2835C5.31027 18.0871 5.91295 18.6897 6.71652 19.0112C7.8817 19.4933 10.6942 19.3728 12.0201 19.3728C13.3058 19.3728 16.1183 19.4933 17.3237 19.0112C18.0871 18.6897 18.7299 18.0871 19.0112 17.2835Z" fill="#545454"/>
</svg>
