<svg width="24" height="24" viewBox="0 0 24 24" fill="none" xmlns="http://www.w3.org/2000/svg">
<path d="M19.1683 8.62818C19.1683 8.80431 19.1683 8.94521 19.1683 9.12133C19.1683 14.0176 15.4697 19.6184 8.67123 19.6184C6.55773 19.6184 4.62035 19.0196 3 17.9628C3.2818 17.998 3.5636 18.0333 3.88063 18.0333C5.60665 18.0333 7.19178 17.4344 8.45988 16.4481C6.83953 16.4129 5.46575 15.3562 5.00783 13.8767C5.2544 13.9119 5.46575 13.9472 5.71233 13.9472C6.02935 13.9472 6.3816 13.8767 6.6634 13.8063C4.9726 13.454 3.7045 11.9746 3.7045 10.1781V10.1429C4.19765 10.4247 4.79648 10.5656 5.3953 10.6008C4.37378 9.93151 3.73973 8.80431 3.73973 7.5362C3.73973 6.8317 3.91585 6.19765 4.23288 5.66928C6.06458 7.88845 8.81213 9.36791 11.8767 9.54403C11.8063 9.26223 11.771 8.98043 11.771 8.69863C11.771 6.65558 13.4266 5 15.4697 5C16.5264 5 17.4775 5.4227 18.182 6.16243C18.9922 5.9863 19.8023 5.66928 20.5068 5.24658C20.225 6.1272 19.6614 6.8317 18.8865 7.28963C19.6262 7.21918 20.3659 7.00783 21 6.72603C20.5068 7.46575 19.8728 8.0998 19.1683 8.62818Z" fill="#545454"/>
</svg>
