<svg width="24" height="24" viewBox="0 0 24 24" fill="none" xmlns="http://www.w3.org/2000/svg">
<path d="M20.6051 8.00731C21 9.3894 21 12.351 21 12.351C21 12.351 21 15.2797 20.6051 16.6947C20.4077 17.4845 19.7825 18.0768 19.0256 18.2742C17.6106 18.6362 12.0165 18.6362 12.0165 18.6362C12.0165 18.6362 6.3894 18.6362 4.97441 18.2742C4.21755 18.0768 3.59232 17.4845 3.39488 16.6947C3 15.2797 3 12.351 3 12.351C3 12.351 3 9.3894 3.39488 8.00731C3.59232 7.21755 4.21755 6.59232 4.97441 6.39488C6.3894 6 12.0165 6 12.0165 6C12.0165 6 17.6106 6 19.0256 6.39488C19.7825 6.59232 20.4077 7.21755 20.6051 8.00731ZM10.1737 15.0165L14.8464 12.351L10.1737 9.68556V15.0165Z" fill="#545454"/>
</svg>
